<?xml version="1.0" encoding="UTF-8" standalone="no"?>
<!-- Created with Inkscape (http://www.inkscape.org/) -->

<svg
   width="54.196789mm"
   height="64.135628mm"
   viewBox="0 0 54.196789 64.135628"
   version="1.1"
   id="svg1"
   xml:space="preserve"
   xmlns="http://www.w3.org/2000/svg"
   xmlns:svg="http://www.w3.org/2000/svg"><defs
     id="defs1" /><g
     id="layer1"
     transform="translate(-109.61019,-53.037079)"><path
       style="fill:#494949;fill-opacity:1"
       d="m 115.21065,116.96589 c -1.77656,-0.35008 -3.78308,-1.56961 -4.67121,-2.83908 -0.6558,-0.9374 -0.81285,-1.4579 -0.89879,-2.97874 -0.0902,-1.59592 -0.007,-2.04108 0.61957,-3.32206 1.99496,-4.07755 7.34591,-6.97196 12.29423,-6.65013 1.09504,0.0712 2.19935,0.21676 2.45401,0.32344 0.43859,0.18371 0.46302,-0.85847 0.46302,-19.754178 V 61.797021 l 19.11615,-4.379973 19.11614,-4.379972 0.0676,23.602646 c 0.0762,26.637868 0.23814,24.535148 -2.07769,26.983798 -2.42707,2.56626 -6.63651,3.99725 -9.79694,3.33043 -5.4337,-1.14645 -6.63055,-6.18079 -2.40831,-10.1302 2.3136,-2.164109 5.31038,-3.274203 8.33239,-3.086567 l 1.51809,0.09426 -3.6e-4,-13.974599 -3.6e-4,-13.9746 -0.59532,0.189849 c -0.32742,0.104417 -6.90562,2.002886 -14.61822,4.21882 l -14.02292,4.028972 -0.13229,17.296404 -0.13229,17.296401 -0.75132,1.53005 c -2.24678,4.57553 -8.60036,7.56255 -13.87514,6.52315 z"
       id="path1" /><text
       xml:space="preserve"
       style="font-size:14.1111px;font-family:'Noto Sans Tai Tham';-inkscape-font-specification:'Noto Sans Tai Tham';text-align:start;writing-mode:lr-tb;direction:ltr;text-anchor:start;fill:#494949;fill-opacity:1;stroke:#444444;stroke-width:0.3;stroke-linecap:square;stroke-linejoin:bevel;stroke-dasharray:none;stroke-opacity:1"
       x="-99.694199"
       y="123.20585"
       id="text1"
       transform="rotate(-90)"><tspan
         id="tspan1"
         style="font-style:normal;font-variant:normal;font-weight:bold;font-stretch:normal;font-size:14.1111px;font-family:'Adwaita Sans';-inkscape-font-specification:'Adwaita Sans Bold';fill:#494949;fill-opacity:1;stroke:#444444;stroke-width:0.3;stroke-dasharray:none;stroke-opacity:1"
         x="-99.694199"
         y="123.20585">AUTO</tspan></text></g></svg>
